<mxfile host="app.diagrams.net" modified="2024-01-02T07:43:57.415Z" agent="Mozilla/5.0 (Windows NT 10.0; Win64; x64) AppleWebKit/537.36 (KHTML, like Gecko) Chrome/120.0.0.0 Safari/537.36" etag="NWCgd7D9W-hrf5JuBEYV" version="22.1.16" type="device">
  <diagram id="jbVRNizJcDCQ8yqokmnY" name="第 1 页">
    <mxGraphModel dx="1434" dy="738" grid="1" gridSize="10" guides="1" tooltips="1" connect="1" arrows="1" fold="1" page="1" pageScale="1" pageWidth="2336" pageHeight="1654" math="0" shadow="0">
      <root>
        <mxCell id="0" />
        <mxCell id="1" parent="0" />
        <mxCell id="_HgupfXg40LZJNDoUt4P-98" value="" style="rounded=0;whiteSpace=wrap;html=1;" vertex="1" parent="1">
          <mxGeometry x="160" y="260" width="1100" height="555" as="geometry" />
        </mxCell>
        <mxCell id="_HgupfXg40LZJNDoUt4P-92" style="edgeStyle=orthogonalEdgeStyle;rounded=0;orthogonalLoop=1;jettySize=auto;html=1;exitX=1;exitY=0.5;exitDx=0;exitDy=0;strokeWidth=3;" edge="1" parent="1" source="_HgupfXg40LZJNDoUt4P-75" target="_HgupfXg40LZJNDoUt4P-76">
          <mxGeometry relative="1" as="geometry" />
        </mxCell>
        <mxCell id="_HgupfXg40LZJNDoUt4P-75" value="&lt;font style=&quot;font-size: 22px;&quot;&gt;售票人員&lt;/font&gt;" style="ellipse;whiteSpace=wrap;html=1;aspect=fixed;" vertex="1" parent="1">
          <mxGeometry x="240" y="290" width="110" height="110" as="geometry" />
        </mxCell>
        <mxCell id="_HgupfXg40LZJNDoUt4P-90" style="edgeStyle=orthogonalEdgeStyle;rounded=0;orthogonalLoop=1;jettySize=auto;html=1;exitX=1;exitY=0.5;exitDx=0;exitDy=0;strokeWidth=3;" edge="1" parent="1" source="_HgupfXg40LZJNDoUt4P-76" target="_HgupfXg40LZJNDoUt4P-77">
          <mxGeometry relative="1" as="geometry" />
        </mxCell>
        <mxCell id="_HgupfXg40LZJNDoUt4P-76" value="&lt;font style=&quot;font-size: 23px;&quot;&gt;讀入&lt;/font&gt;" style="rounded=0;whiteSpace=wrap;html=1;" vertex="1" parent="1">
          <mxGeometry x="510" y="305" width="150" height="80" as="geometry" />
        </mxCell>
        <mxCell id="_HgupfXg40LZJNDoUt4P-87" style="edgeStyle=orthogonalEdgeStyle;rounded=0;orthogonalLoop=1;jettySize=auto;html=1;exitX=0.5;exitY=1;exitDx=0;exitDy=0;strokeWidth=3;" edge="1" parent="1" source="_HgupfXg40LZJNDoUt4P-77" target="_HgupfXg40LZJNDoUt4P-78">
          <mxGeometry relative="1" as="geometry" />
        </mxCell>
        <mxCell id="_HgupfXg40LZJNDoUt4P-77" value="&lt;span style=&quot;font-size: 23px;&quot;&gt;信息處理&lt;/span&gt;" style="rounded=0;whiteSpace=wrap;html=1;" vertex="1" parent="1">
          <mxGeometry x="800" y="310" width="150" height="70" as="geometry" />
        </mxCell>
        <mxCell id="_HgupfXg40LZJNDoUt4P-86" style="edgeStyle=orthogonalEdgeStyle;rounded=0;orthogonalLoop=1;jettySize=auto;html=1;exitX=0;exitY=0.5;exitDx=0;exitDy=0;entryX=0;entryY=0.5;entryDx=0;entryDy=0;strokeWidth=3;" edge="1" parent="1" source="_HgupfXg40LZJNDoUt4P-78" target="_HgupfXg40LZJNDoUt4P-80">
          <mxGeometry relative="1" as="geometry" />
        </mxCell>
        <mxCell id="_HgupfXg40LZJNDoUt4P-78" value="&lt;font style=&quot;font-size: 23px;&quot;&gt;輸出&lt;/font&gt;" style="rounded=0;whiteSpace=wrap;html=1;" vertex="1" parent="1">
          <mxGeometry x="800" y="530" width="150" height="70" as="geometry" />
        </mxCell>
        <mxCell id="_HgupfXg40LZJNDoUt4P-94" style="edgeStyle=orthogonalEdgeStyle;rounded=0;orthogonalLoop=1;jettySize=auto;html=1;exitX=1;exitY=0.5;exitDx=0;exitDy=0;entryX=0.5;entryY=1;entryDx=0;entryDy=0;strokeWidth=3;" edge="1" parent="1" source="_HgupfXg40LZJNDoUt4P-79" target="_HgupfXg40LZJNDoUt4P-76">
          <mxGeometry relative="1" as="geometry" />
        </mxCell>
        <mxCell id="_HgupfXg40LZJNDoUt4P-79" value="&lt;font style=&quot;font-size: 22px;&quot;&gt;旅客&lt;/font&gt;" style="ellipse;whiteSpace=wrap;html=1;aspect=fixed;" vertex="1" parent="1">
          <mxGeometry x="240" y="440" width="110" height="110" as="geometry" />
        </mxCell>
        <mxCell id="_HgupfXg40LZJNDoUt4P-80" value="&lt;font style=&quot;font-size: 23px;&quot;&gt;旅客信息表&lt;/font&gt;" style="rounded=0;whiteSpace=wrap;html=1;" vertex="1" parent="1">
          <mxGeometry x="440" y="730" width="250" height="60" as="geometry" />
        </mxCell>
        <mxCell id="_HgupfXg40LZJNDoUt4P-81" value="&lt;font style=&quot;font-size: 23px;&quot;&gt;班次信息&lt;/font&gt;" style="rounded=0;whiteSpace=wrap;html=1;" vertex="1" parent="1">
          <mxGeometry x="970" y="710" width="250" height="60" as="geometry" />
        </mxCell>
        <mxCell id="_HgupfXg40LZJNDoUt4P-82" value="&lt;font style=&quot;font-size: 21px;&quot;&gt;被查詢班次&lt;br&gt;&lt;/font&gt;" style="text;html=1;strokeColor=none;fillColor=none;align=center;verticalAlign=middle;whiteSpace=wrap;rounded=0;" vertex="1" parent="1">
          <mxGeometry x="870" y="400" width="140" height="30" as="geometry" />
        </mxCell>
        <mxCell id="_HgupfXg40LZJNDoUt4P-83" value="" style="endArrow=classic;html=1;rounded=0;exitX=0.5;exitY=1;exitDx=0;exitDy=0;entryX=0;entryY=0.5;entryDx=0;entryDy=0;strokeWidth=3;" edge="1" parent="1" source="_HgupfXg40LZJNDoUt4P-78" target="_HgupfXg40LZJNDoUt4P-81">
          <mxGeometry width="50" height="50" relative="1" as="geometry">
            <mxPoint x="1050" y="580" as="sourcePoint" />
            <mxPoint x="1100" y="530" as="targetPoint" />
            <Array as="points">
              <mxPoint x="875" y="740" />
            </Array>
          </mxGeometry>
        </mxCell>
        <mxCell id="_HgupfXg40LZJNDoUt4P-88" value="&lt;font style=&quot;font-size: 21px;&quot;&gt;信息總表&lt;/font&gt;" style="text;html=1;strokeColor=none;fillColor=none;align=center;verticalAlign=middle;whiteSpace=wrap;rounded=0;" vertex="1" parent="1">
          <mxGeometry x="670" y="305" width="110" height="30" as="geometry" />
        </mxCell>
        <mxCell id="_HgupfXg40LZJNDoUt4P-93" value="&lt;font style=&quot;font-size: 21px;&quot;&gt;旅客信息&lt;/font&gt;" style="text;html=1;strokeColor=none;fillColor=none;align=center;verticalAlign=middle;whiteSpace=wrap;rounded=0;" vertex="1" parent="1">
          <mxGeometry x="360" y="300" width="110" height="30" as="geometry" />
        </mxCell>
        <mxCell id="_HgupfXg40LZJNDoUt4P-95" value="&lt;font style=&quot;font-size: 21px;&quot;&gt;班次信息&lt;/font&gt;" style="text;html=1;strokeColor=none;fillColor=none;align=center;verticalAlign=middle;whiteSpace=wrap;rounded=0;" vertex="1" parent="1">
          <mxGeometry x="370" y="460" width="110" height="30" as="geometry" />
        </mxCell>
        <mxCell id="_HgupfXg40LZJNDoUt4P-96" value="&lt;font style=&quot;font-size: 21px;&quot;&gt;旅客登記信息&lt;/font&gt;" style="text;html=1;strokeColor=none;fillColor=none;align=center;verticalAlign=middle;whiteSpace=wrap;rounded=0;" vertex="1" parent="1">
          <mxGeometry x="580" y="530" width="140" height="30" as="geometry" />
        </mxCell>
        <mxCell id="_HgupfXg40LZJNDoUt4P-97" value="&lt;font style=&quot;font-size: 21px;&quot;&gt;班次信息&lt;/font&gt;" style="text;html=1;strokeColor=none;fillColor=none;align=center;verticalAlign=middle;whiteSpace=wrap;rounded=0;" vertex="1" parent="1">
          <mxGeometry x="880" y="630" width="100" height="30" as="geometry" />
        </mxCell>
      </root>
    </mxGraphModel>
  </diagram>
</mxfile>
